<svg xmlns="http://www.w3.org/2000/svg" viewBox="0 0 512 512">
  <defs>
    <linearGradient id="gradient" x1="0%" y1="0%" x2="100%" y2="100%">
      <stop offset="0%" style="stop-color:#ec4899;stop-opacity:1" />
      <stop offset="100%" style="stop-color:#db2777;stop-opacity:1" />
    </linearGradient>
  </defs>
  <!-- Background circle -->
  <circle cx="256" cy="256" r="240" fill="url(#gradient)"/>
  <!-- Healing hands symbol -->
  <g fill="#ffffff">
    <!-- Left hand (open palm) -->
    <path d="M160 320 c-15 0-28-12-28-28 l0-80 c0-15 12-28 28-28 l20 0 c8 0 15 7 15 15 l0 106 c0 8-7 15-15 15 z"/>
    <path d="M195 195 c0-12 10-22 22-22 s22 10 22 22 l0 90 c0 8-6 14-14 14 l-16 0 c-8 0-14-6-14-14 z"/>
    <path d="M128 260 l0-48 c0-10 8-18 18-18 s18 8 18 18 l0 68 c0 8-7 15-15 15 l-6 0 c-8 0-15-7-15-15 z"/>
    <!-- Right hand (open palm) -->
    <path d="M352 320 c15 0 28-12 28-28 l0-80 c0-15-12-28-28-28 l-20 0 c-8 0-15 7-15 15 l0 106 c0 8 7 15 15 15 z"/>
    <path d="M317 195 c0-12-10-22-22-22 s-22 10-22 22 l0 90 c0 8 6 14 14 14 l16 0 c8 0 14-6 14-14 z"/>
    <path d="M384 260 l0-48 c0-10-8-18-18-18 s-18 8-18 18 l0 68 c0 8 7 15 15 15 l6 0 c8 0 15-7 15-15 z"/>
    <!-- Heart in center -->
    <path d="M256 380 c-8-8-80-72-80-120 c0-35 28-55 55-55 c18 0 25 12 25 12 s7-12 25-12 c27 0 55 20 55 55 c0 48-72 112-80 120 z"/>
  </g>
</svg>
